PathFileType	4	(X/Y/Z)	C:/Users/opensim2020/Desktop/walking_exp_matlab/subject03_walking06_straight_03.trc	
DataRate	CameraRate	NumFrames	NumMarkers	Units	OrigDataRate	OrigDataStartFrame	OrigNumFrames	
100.00	100.00	4	44	mm	100.00	2170	280	
Frame#	Time	LFHD			RFHD			LBHD			RBHD			C7			T10			CLAV			STRN			RBAK			LSHO			LUPA			LELB			LFRM			LWRA			LWRB			LFIN			RSHO			RUPA			RELB			RFRM			RWRA			RWRB			RFIN			LASI			RASI			LPSI			RPSI			LTHI			LKNE			LTIB			LANK			LHEE			LTOE			RTHI			RKNE			RTIB			RANK			RHEE			RTOE			*39			*40			*41			*42			*43			
		X1	Y1	Z1	X2	Y2	Z2	X3	Y3	Z3	X4	Y4	Z4	X5	Y5	Z5	X6	Y6	Z6	X7	Y7	Z7	X8	Y8	Z8	X9	Y9	Z9	X10	Y10	Z10	X11	Y11	Z11	X12	Y12	Z12	X13	Y13	Z13	X14	Y14	Z14	X15	Y15	Z15	X16	Y16	Z16	X17	Y17	Z17	X18	Y18	Z18	X19	Y19	Z19	X20	Y20	Z20	X21	Y21	Z21	X22	Y22	Z22	X23	Y23	Z23	X24	Y24	Z24	X25	Y25	Z25	X26	Y26	Z26	X27	Y27	Z27	X28	Y28	Z28	X29	Y29	Z29	X30	Y30	Z30	X31	Y31	Z31	X32	Y32	Z32	X33	Y33	Z33	X34	Y34	Z34	X35	Y35	Z35	X36	Y36	Z36	X37	Y37	Z37	X38	Y38	Z38	X39	Y39	Z39	X40	Y40	Z40	X41	Y41	Z41	X42	Y42	Z42	X43	Y43	Z43	X44	Y44	Z44	

176	1.750	1400.65601	454.63885	1610.20630	1533.37708	447.85117	1611.39868	1399.35156	332.24234	1552.60779	1530.70239	330.61169	1554.22180	1452.54858	309.20306	1400.71313	1450.14624	275.07648	1088.07178	1455.40991	432.63239	1324.26941	1443.84143	474.50339	1159.46545	1540.51550	254.96135	1222.50671	1300.63049	394.63138	1365.61829	1219.71753	422.66623	1179.11133	1204.36206	465.36322	1065.25464	1217.98840	548.48596	968.77618	1263.33362	620.73846	882.48810	1211.32080	606.12762	870.72198	1229.22949	666.72974	817.51276	1615.27673	379.59995	1343.49585	1684.17554	355.29617	1121.96985	1698.25122	357.70862	1008.90381	1701.18884	359.71915	871.83478	1668.14246	382.45010	773.38226	1709.03967	346.92294	771.94763	1700.12073	362.11624	698.72223	1323.38110	431.39310	923.08557	1562.32397	447.28995	924.11438	1387.97766	273.90488	947.90454	1535.62671	283.58450	950.56274	1290.94189	322.70062	632.27924	1325.17322	280.18140	457.24756	1325.79749	157.00967	298.45605	1367.82520	54.97033	113.21886	1402.73877	3.68273	96.21053	1400.55627	183.42067	32.85807	1611.26343	447.08392	635.07758	1576.74438	515.80554	467.82333	1584.09399	529.21173	282.38428	1547.03455	583.25604	71.19778	1492.63489	546.60052	37.78604	1530.01904	728.16730	44.48507	1445.72131	361.36661	1658.07080												 
177	1.760	1401.85120	465.64139	1611.22021	1534.62939	459.15176	1612.45569	1400.87085	343.22812	1553.43823	1532.26025	341.79169	1555.17993	1454.38745	320.41745	1401.48877	1451.07764	287.06070	1088.59961	1456.90015	443.89780	1325.29578	1445.20422	486.30417	1160.61682	1542.16089	266.05557	1222.87219	1301.94714	405.34000	1366.31079	1221.24927	431.90274	1179.11719	1205.75806	473.62009	1064.84802	1219.35376	556.19342	967.84412	1264.55164	628.20691	881.39301	1212.90442	613.27417	869.50903	1230.57178	673.63910	816.18890	1616.92725	391.18118	1343.92310	1685.35718	367.85434	1122.07593	1699.44922	370.37820	1009.05048	1701.87695	371.81442	871.70837	1668.79810	394.03348	773.27643	1710.02820	358.58313	772.05975	1700.81445	373.55801	698.71234	1324.24023	443.38412	922.98114	1563.34924	459.58746	925.28333	1388.96594	285.95273	948.06104	1536.60974	296.04883	951.88733	1291.51697	335.28674	631.84045	1324.60962	292.91406	456.57861	1325.55505	165.90698	300.35770	1367.55554	58.64455	118.47807	1402.85913	7.07408	103.42204	1400.68921	184.09048	32.97785	1611.47253	458.94720	637.20245	1577.88708	524.12091	468.30478	1585.47546	537.17328	283.09705	1546.71338	587.16425	71.21556	1493.06494	548.76794	39.01656	1531.74463	731.52032	41.72471	1446.76855	372.09195	1658.86230												 
178	1.770	1403.00037	476.55072	1612.41663	1535.77808	470.39078	1613.81628	1402.43860	354.20364	1554.69482	1533.74963	353.15414	1556.54968	1456.29517	331.56021	1402.55505	1451.89600	298.83466	1089.46741	1458.39063	455.18958	1326.79224	1446.55811	498.13263	1162.26343	1543.84155	277.74268	1223.54321	1303.33557	416.11050	1367.38391	1222.89795	441.08414	1179.47485	1207.06909	481.47684	1064.69727	1220.75745	563.59058	967.02393	1265.76819	635.18048	880.21539	1214.09668	619.66888	868.16351	1231.75195	679.89484	814.64178	1618.65149	402.92056	1344.77844	1686.54980	380.53503	1122.61206	1700.27051	383.25586	1009.46320	1702.67725	384.31082	872.09039	1669.39465	405.95044	773.56390	1710.72571	370.84833	772.39783	1701.46680	385.18063	699.03320	1325.29541	455.90186	923.35242	1564.32910	471.83871	927.12299	1389.82959	298.12564	948.43970	1537.44348	308.35605	953.95435	1291.82227	348.46429	631.47754	1323.82202	306.67270	456.32416	1325.47961	175.47002	302.65567	1367.41333	63.49968	124.10485	1402.90125	11.71684	111.15521	1400.46814	184.28970	32.85437	1612.20056	469.50751	639.55017	1578.61865	533.20972	469.63553	1586.45447	544.80048	284.07401	1545.80652	588.47980	71.27773	1492.76904	549.14911	39.10389	1531.60559	732.63763	39.84489	1448.33838	383.20413	1660.20703												 
179	1.780	1404.23108	487.64496	1613.92944	1536.89294	481.69244	1615.41455	1404.03259	365.22571	1556.30298	1535.31750	364.38931	1558.31763	1458.22314	342.84607	1404.03772	1452.60632	310.64789	1090.83875	1459.92090	466.46497	1328.58130	1447.90576	509.88760	1164.13416	1545.63477	289.51239	1224.59851	1304.79395	426.93329	1368.92163	1224.67761	450.48364	1180.34741	1208.71790	489.59875	1065.04272	1222.21545	570.65887	966.34204	1266.91138	641.49951	878.89508	1215.38257	625.56036	866.86780	1232.83264	685.37103	812.92682	1620.29822	414.59937	1346.07947	1687.71973	393.49124	1123.52917	1701.27002	396.62201	1010.36975	1703.47363	397.17892	872.90710	1669.93567	418.15948	774.29602	1711.75793	383.36093	773.35895	1702.23499	397.40897	699.80939	1326.41064	468.22711	923.97321	1565.19177	483.89935	929.60858	1390.48096	310.31061	949.05200	1537.90308	320.37943	956.58136	1292.19385	362.45624	631.14001	1322.93176	321.34711	455.60199	1325.26880	186.15578	305.11810	1367.46899	69.42593	130.24771	1403.41003	17.79625	119.71368	1400.65149	184.94354	32.68994	1613.32019	479.13474	641.86548	1578.86243	542.98450	471.66675	1587.10828	551.32532	285.07401	1545.14880	589.19891	71.58769	1492.71045	549.10449	39.09826	1529.12305	733.15692	38.85944	1449.74744	394.52292	1661.82312												 
